<svg width="123" height="148" viewBox="0 0 123 148" fill="none" xmlns="http://www.w3.org/2000/svg">
<g clip-path="url(#clip0)">
<path d="M93.5365 14.0359H29.4636V16.6936H93.5365V14.0359Z" fill="#C51A1B"/>
<path d="M99.761 0H23.2388V3.98653H99.761V0Z" fill="#C51A1B"/>
<path d="M80.9211 69.0168V26.6599H61.5V78.5679L80.9211 69.0168Z" fill="#C51A1B"/>
<path d="M61.5 26.6599H44.7349V86.8732L61.5 78.5679V26.6599Z" fill="white"/>
<path d="M42.0789 26.6599V88.202L44.7347 86.8732V26.6599H42.0789Z" fill="#C51A1B"/>
<path d="M107.812 145.259C108.725 145.259 109.887 144.429 109.887 143.598C109.887 143.1 109.638 142.768 108.891 142.269C108.476 141.937 108.144 141.688 108.144 141.273C108.144 140.857 108.393 140.691 108.808 140.691C109.223 140.691 109.472 140.94 109.721 141.19C109.804 141.273 109.887 141.273 109.97 141.273C110.136 141.19 110.219 141.023 110.219 140.857C110.219 140.608 109.804 140.276 109.306 140.276C108.974 140.276 108.393 140.525 108.061 140.774C107.563 141.19 107.48 141.522 107.48 141.854C107.48 142.435 107.978 142.851 108.476 143.183C109.057 143.598 109.14 143.847 109.14 144.096C109.14 144.429 108.808 144.761 108.393 144.761C107.978 144.761 107.563 144.512 107.314 144.096C107.231 144.013 107.148 144.013 107.065 144.096C106.899 144.179 106.733 144.346 106.733 144.595C106.65 144.927 107.314 145.259 107.812 145.259ZM105.986 143.93C105.654 144.263 105.239 144.512 105.156 144.512C105.073 144.512 105.073 144.429 105.156 144.096C105.405 142.685 105.737 141.439 106.069 140.276H105.903L105.073 140.525C104.907 141.19 104.824 141.771 104.658 142.269C104.243 143.1 102.915 144.595 102.251 144.595C102.085 144.595 102.002 144.429 102.085 143.847C102.334 142.934 102.5 142.103 102.749 141.19C102.915 140.442 102.915 140.193 102.583 140.193C102.251 140.193 101.587 140.608 100.923 141.273L101.089 141.522C101.504 141.19 101.836 141.023 101.919 141.023C102.002 141.023 102.002 141.107 101.919 141.439C101.67 142.269 101.504 143.1 101.255 144.013C100.923 145.176 101.338 145.425 101.67 145.425C101.919 145.425 102.251 145.342 102.583 145.093C103.164 144.678 103.911 144.013 104.409 143.266C104.326 143.598 104.243 143.847 104.16 144.263C103.911 145.259 104.077 145.425 104.326 145.425C104.658 145.425 105.405 144.927 105.986 144.263V143.93ZM99.9272 143.93C99.5953 144.263 99.2633 144.429 99.1803 144.429C99.0973 144.429 99.0973 144.346 99.1803 144.096L99.7612 141.771C100.093 140.276 99.7612 140.193 99.5123 140.193C99.2633 140.193 99.0973 140.276 98.8483 140.442C98.3503 140.691 97.5203 141.356 96.7734 142.352L96.8564 141.937C97.1884 140.525 96.8564 140.276 96.6074 140.276C96.3584 140.276 96.1924 140.359 95.8604 140.525C95.3625 140.774 94.6155 141.356 93.7855 142.435L93.9515 141.688C94.2005 140.774 94.1175 140.359 93.8685 140.359C93.5365 140.359 92.8726 140.774 92.2086 141.439L92.3746 141.688C92.6236 141.439 93.0386 141.107 93.2046 141.107C93.2876 141.107 93.2876 141.19 93.2046 141.605C92.9556 142.851 92.6236 144.096 92.2086 145.342L92.2916 145.425C92.5406 145.342 92.8726 145.259 93.1216 145.259C93.2876 144.595 93.4536 143.847 93.6195 143.349C93.9515 142.601 95.3625 141.023 95.9434 141.023C96.1924 141.023 96.1924 141.273 96.0264 142.02C95.7774 143.1 95.4454 144.263 95.1965 145.342L95.2795 145.425C95.5285 145.342 95.8604 145.259 96.1094 145.259C96.2754 144.595 96.4414 143.847 96.5244 143.349C96.9394 142.601 98.3503 141.023 98.8483 141.023C99.0143 141.023 99.0973 141.19 98.9313 141.771L98.2673 144.346C98.1013 145.176 98.1843 145.508 98.4333 145.508C98.6823 145.508 99.4293 145.093 100.093 144.429L99.9272 143.93ZM87.7268 144.595C87.5608 144.595 87.3948 144.346 87.3948 143.847C87.3948 142.768 87.8928 141.439 88.6398 140.857C88.8058 140.691 89.1378 140.608 89.4697 140.608C89.8017 140.608 90.0507 140.691 90.2167 140.774C90.1337 141.107 89.9677 141.937 89.8017 142.352C89.4697 143.183 88.2248 144.595 87.7268 144.595ZM91.2127 143.847C90.8807 144.179 90.4657 144.429 90.3827 144.429C90.2997 144.429 90.2997 144.346 90.3827 143.93C90.6317 142.518 90.9637 141.023 91.2127 140.359V140.276C91.0467 140.276 90.9637 140.276 90.7977 140.193C90.5487 140.11 90.2997 140.11 90.0507 140.11C89.3037 140.11 88.4738 140.525 87.8928 140.94C87.0629 141.605 86.4819 142.851 86.4819 143.93C86.4819 144.844 86.8139 145.176 87.1459 145.176C87.4778 145.176 87.8098 145.01 88.2248 144.678C88.7228 144.263 89.2208 143.764 89.7187 143.183L89.4697 144.263C89.3038 145.093 89.4697 145.259 89.6357 145.259C89.8847 145.259 90.7147 144.844 91.2957 144.096L91.2127 143.847ZM86.4819 140.359H85.154L85.5689 138.698L85.4859 138.615L84.573 139.279L84.324 140.359H83.66L83.411 140.691V140.774H84.241L83.577 143.847C83.328 145.01 83.577 145.342 83.826 145.342C84.407 145.342 85.3199 144.595 85.6519 144.179L85.4859 143.93C85.237 144.179 84.656 144.595 84.49 144.595C84.324 144.595 84.324 144.512 84.407 143.93L85.071 140.857L86.2329 140.774L86.4819 140.359ZM79.7592 144.844C79.1782 144.844 78.7633 144.346 78.7633 143.515C78.7633 141.771 79.5102 140.94 80.0082 140.691C80.1742 140.608 80.2572 140.608 80.4232 140.608C80.9212 140.608 81.3361 141.023 81.3361 141.937C81.3361 143.349 80.6722 144.512 80.0912 144.761C80.0912 144.844 79.9252 144.844 79.7592 144.844ZM79.3442 145.259C80.0082 145.259 80.5892 144.927 81.0872 144.595C81.9171 143.93 82.3321 142.851 82.3321 141.937C82.3321 140.857 81.7511 140.193 80.8382 140.193C80.5062 140.193 80.0082 140.359 79.5932 140.525C78.5973 141.023 77.8503 142.103 77.8503 143.515C77.8503 144.512 78.2653 145.259 79.3442 145.259ZM76.8544 143.93C76.5224 144.263 76.1904 144.429 76.1074 144.429C76.0244 144.429 76.0244 144.346 76.1074 144.013C76.2734 143.266 76.5224 142.435 76.6884 141.688C77.0204 140.276 76.6884 140.11 76.4394 140.11C76.1904 140.11 75.9414 140.193 75.6924 140.359C75.1944 140.608 74.3645 141.273 73.5345 142.269L73.7835 141.273C74.0325 140.442 73.9495 140.027 73.7005 140.027C73.3685 140.027 72.7046 140.442 72.0406 141.107L72.2066 141.356C72.4556 141.107 72.8706 140.857 72.9535 140.857C73.0365 140.857 73.0365 140.94 72.9535 141.273C72.7046 142.518 72.2896 143.847 72.0406 145.01L72.1236 145.093C72.3726 145.01 72.6216 144.927 72.9535 144.844C73.1195 144.179 73.2855 143.515 73.3685 142.934C73.9495 142.02 75.2774 140.608 75.7754 140.608C75.9414 140.608 76.0244 140.774 75.8584 141.439C75.6094 142.269 75.4434 143.1 75.1944 143.93C75.0284 144.761 75.1114 145.093 75.3604 145.093C75.6924 145.093 76.2734 144.761 77.0204 144.013L76.8544 143.93ZM64.571 144.595C64.405 144.595 64.239 144.346 64.239 143.764C64.239 142.851 64.654 141.439 65.4839 140.94C65.6499 140.774 65.8989 140.691 66.3139 140.691C66.6459 140.691 67.0608 140.857 67.2268 140.94L66.8948 142.518C66.3969 143.183 65.1519 144.595 64.571 144.595ZM68.2228 143.93C67.8908 144.263 67.5588 144.512 67.3928 144.512C67.3098 144.512 67.3098 144.429 67.3098 144.179C67.7248 142.02 68.2228 139.861 68.7208 137.701C68.8038 137.452 68.7208 137.369 68.6378 137.369C68.4718 137.369 67.8078 137.618 66.8948 137.784V138.034H67.2268C67.7248 138.034 67.8078 138.117 67.6418 138.615L67.2268 140.442C66.9778 140.359 66.7288 140.359 66.5629 140.359C65.9819 140.359 65.0689 140.774 64.488 141.19C63.658 141.854 63.16 143.1 63.16 144.096C63.16 145.01 63.492 145.425 63.907 145.425C64.239 145.425 64.571 145.259 64.9859 144.927C65.4009 144.595 65.9819 144.179 66.4799 143.515L66.3139 144.429C66.1479 145.259 66.3139 145.425 66.4799 145.425C66.8118 145.425 67.5588 145.01 68.1398 144.346L68.2228 143.93ZM59.9232 144.844C59.3422 144.844 58.9272 144.346 58.9272 143.515C58.9272 141.771 59.6742 140.94 60.1722 140.691C60.3382 140.608 60.4212 140.608 60.5872 140.608C61.0851 140.608 61.5001 141.023 61.5001 141.937C61.5001 143.349 60.8361 144.512 60.2552 144.761C60.1722 144.844 60.0062 144.844 59.9232 144.844ZM59.5082 145.259C60.1722 145.259 60.7531 144.927 61.2511 144.595C62.0811 143.93 62.4961 142.851 62.4961 141.937C62.4961 140.857 61.9151 140.193 61.0021 140.193C60.6702 140.193 60.1722 140.359 59.7572 140.525C58.7612 141.023 58.0143 142.103 58.0143 143.515C57.9313 144.512 58.3463 145.259 59.5082 145.259ZM57.0183 143.93C56.6863 144.263 56.2714 144.512 56.1884 144.512C56.1054 144.512 56.1054 144.429 56.1884 144.096C56.4374 142.685 56.7693 141.439 57.1013 140.276H56.9353L56.1054 140.525C55.9394 141.19 55.8564 141.771 55.6904 142.269C55.2754 143.1 53.9475 144.595 53.2835 144.595C53.1175 144.595 53.0345 144.429 53.1175 143.847C53.3665 142.934 53.5325 142.103 53.7815 141.19C53.9475 140.442 53.9475 140.193 53.6155 140.193C53.2835 140.193 52.6195 140.608 51.9556 141.273L52.1216 141.522C52.5365 141.19 52.8685 141.023 52.9515 141.023C53.0345 141.023 53.0345 141.107 52.9515 141.439C52.7025 142.269 52.5365 143.1 52.2876 144.013C51.9556 145.176 52.3706 145.425 52.7025 145.425C52.9515 145.425 53.2835 145.342 53.6155 145.093C54.1965 144.678 54.9434 144.013 55.4414 143.266C55.3584 143.598 55.2754 143.847 55.1924 144.263C54.9434 145.259 55.1094 145.425 55.3584 145.425C55.6904 145.425 56.4374 144.927 57.0183 144.263V143.93ZM49.4657 140.691C49.7977 140.691 50.1297 140.774 50.2957 140.857C50.2127 141.522 49.9637 142.269 49.8807 142.685C49.3827 143.432 48.2208 144.595 47.6398 144.595C47.4738 144.595 47.3078 144.346 47.3078 143.847C47.3078 142.851 47.8058 141.522 48.5527 141.023C48.8017 140.774 49.1337 140.691 49.4657 140.691ZM50.7106 147.585H50.4616C49.8807 147.502 49.7977 147.502 49.9637 146.754L50.7106 142.851C50.8766 141.771 51.1256 140.94 51.2916 140.442L51.1256 140.359C50.8766 140.276 50.3787 140.193 50.1297 140.193C49.9637 140.193 49.7147 140.193 49.5487 140.276C49.1337 140.359 48.3867 140.691 47.8058 141.107C47.0588 141.771 46.4778 142.851 46.4778 144.096C46.4778 144.844 46.8098 145.342 47.2248 145.342C47.5568 145.342 47.9718 145.093 48.4697 144.761C48.9677 144.346 49.5487 143.847 49.9637 143.349L49.2167 146.754C49.0507 147.419 48.9677 147.502 48.3867 147.668H48.2208L48.1378 147.917L50.6276 147.834L50.7106 147.585ZM43.656 140.359H42.328L42.743 138.698L42.66 138.615L41.7471 139.279L41.4981 140.359H40.8341L40.5851 140.691V140.774H41.4151L40.7511 143.847C40.5021 145.01 40.7511 145.342 41.0001 145.342C41.5811 145.342 42.494 144.595 42.826 144.179L42.66 143.93C42.411 144.179 41.8301 144.595 41.6641 144.595C41.4981 144.595 41.4981 144.512 41.5811 143.93L42.245 140.857L43.407 140.774L43.656 140.359ZM37.2653 145.259C38.1782 145.259 39.3402 144.429 39.3402 143.598C39.3402 143.1 39.0912 142.768 38.3442 142.269C37.9293 141.937 37.5973 141.688 37.5973 141.273C37.5973 140.857 37.8463 140.691 38.2612 140.691C38.6762 140.691 38.9252 140.94 39.1742 141.19C39.2572 141.273 39.3402 141.273 39.4232 141.273C39.5892 141.19 39.6722 141.023 39.6722 140.857C39.6722 140.608 39.2572 140.276 38.7592 140.276C38.4272 140.276 37.8463 140.525 37.5143 140.774C37.0163 141.19 36.9333 141.522 36.9333 141.854C36.9333 142.435 37.4313 142.851 37.9293 143.183C38.5102 143.598 38.5932 143.847 38.5932 144.096C38.5932 144.429 38.2612 144.761 37.8463 144.761C37.4313 144.761 37.0163 144.512 36.7673 144.096C36.6843 144.013 36.6013 144.013 36.5183 144.096C36.3523 144.179 36.1863 144.346 36.1863 144.595C36.1033 144.927 36.7673 145.259 37.2653 145.259ZM34.5264 140.608C34.8584 140.608 35.1074 140.857 35.1074 141.19C35.1074 141.688 34.6094 142.186 32.9495 142.601C33.1155 141.356 33.6965 140.857 34.0284 140.691C34.1944 140.691 34.3604 140.608 34.5264 140.608ZM35.5224 143.764C34.9414 144.346 34.3604 144.595 33.8625 144.595C33.1985 144.595 32.9495 143.93 32.9495 143.349C32.9495 143.266 32.9495 143.1 32.9495 143.017C34.0284 142.768 36.0204 142.186 36.0204 141.023C36.0204 140.525 35.6054 140.11 35.0244 140.11C34.5264 140.11 33.9455 140.359 33.4475 140.691C32.5345 141.356 32.0365 142.518 32.0365 143.598C32.0365 144.927 32.7835 145.176 33.2815 145.176C33.8625 145.176 34.6924 144.927 35.6884 143.93L35.5224 143.764ZM24.4009 141.605C24.8159 141.107 24.9819 140.94 25.1479 140.94C25.3139 140.94 25.3969 141.107 25.5629 141.605L25.9778 142.768C25.2309 143.764 24.7329 144.429 24.4009 144.429C24.3179 144.429 24.2349 144.346 24.1519 144.346C24.0689 144.263 24.0689 144.263 23.9859 144.263C23.7369 144.263 23.488 144.512 23.488 144.761C23.488 145.093 23.7369 145.259 23.9859 145.259C24.5669 145.259 25.0649 144.678 26.0608 143.183L26.3928 144.263C26.6418 144.927 26.8908 145.259 27.1398 145.259C27.5548 145.259 28.0527 144.844 28.6337 144.096L28.4677 143.847C28.1357 144.263 27.8038 144.512 27.6378 144.512C27.4718 144.512 27.3058 144.179 27.0568 143.515L26.7248 142.435C26.9738 142.103 27.2228 141.771 27.4718 141.522C27.8038 141.19 27.9697 140.94 28.1357 140.94C28.2187 140.94 28.3017 141.023 28.3847 141.107C28.4677 141.19 28.4677 141.19 28.5507 141.19C28.7167 141.19 28.9657 140.94 28.9657 140.691C28.9657 140.442 28.7997 140.193 28.4677 140.193C27.9697 140.193 27.4718 140.691 26.4758 142.02L26.3098 141.439C26.0608 140.608 25.8948 140.193 25.5629 140.193C25.1479 140.193 24.6499 140.691 24.1519 141.356L24.4009 141.605ZM21.828 140.608C22.16 140.608 22.409 140.857 22.409 141.19C22.409 141.688 21.911 142.186 20.2511 142.601C20.4171 141.356 20.9981 140.857 21.3301 140.691C21.4961 140.691 21.662 140.608 21.828 140.608ZM22.824 143.764C22.243 144.346 21.662 144.595 21.1641 144.595C20.5001 144.595 20.2511 143.93 20.2511 143.349C20.2511 143.266 20.2511 143.1 20.2511 143.017C21.3301 142.768 23.322 142.186 23.322 141.023C23.322 140.525 22.907 140.11 22.326 140.11C21.828 140.11 21.2471 140.359 20.7491 140.691C19.8361 141.356 19.3382 142.518 19.3382 143.598C19.3382 144.927 20.0851 145.176 20.5831 145.176C21.1641 145.176 21.994 144.927 22.99 143.93L22.824 143.764ZM18.1762 143.349C17.8442 143.93 17.5952 144.263 17.3463 144.512C17.0973 144.761 16.6823 144.844 16.0183 144.844C15.5203 144.844 15.1054 144.844 15.0224 144.678C14.8564 144.512 14.8564 144.263 14.8564 143.847L15.7693 139.279C15.9353 138.449 15.9353 138.366 16.9313 138.283L17.0143 138.034H14.1094L14.0264 138.283C14.9394 138.366 15.0224 138.449 14.8564 139.279L13.9434 143.93C13.7774 144.761 13.6944 144.844 12.7815 144.927L12.6985 145.259H17.7612C17.9272 144.927 18.3422 143.93 18.5082 143.515L18.1762 143.349Z" fill="#575756"/>
<path d="M120.676 126.323C120.676 124.579 120.676 124.247 120.676 123.915C120.676 123.499 120.759 123.333 121.091 123.25C121.174 123.25 121.257 123.25 121.34 123.25C121.423 123.25 121.506 123.25 121.506 123.167C121.506 123.084 121.423 123.084 121.34 123.084C121.008 123.084 120.261 123.084 120.178 123.084C120.095 123.084 119.348 123.084 118.85 123.084C118.684 123.084 118.684 123.084 118.684 123.167C118.684 123.25 118.767 123.25 118.85 123.25C118.933 123.25 119.099 123.25 119.182 123.25C119.597 123.333 119.68 123.499 119.68 123.915C119.68 124.247 119.68 124.579 119.68 126.323V129.562C119.68 132.386 119.348 132.967 118.601 133.715C118.518 133.798 118.352 133.964 118.186 134.047C118.103 134.13 118.02 134.13 118.02 134.213C118.02 134.296 118.103 134.296 118.103 134.296H118.186C118.269 134.213 118.518 134.13 118.601 134.047C119.514 133.466 120.012 132.884 120.261 132.386C120.593 131.639 120.593 130.891 120.593 129.147V126.323H120.676ZM112.709 128.316C112.709 129.313 112.709 129.894 112.709 130.31C112.709 131.14 112.543 131.306 112.294 131.389C112.211 131.389 112.128 131.389 112.045 131.389C111.962 131.389 111.879 131.389 111.879 131.472C111.879 131.556 111.962 131.556 112.045 131.556C112.377 131.556 112.626 131.556 112.875 131.556C113.29 131.556 113.871 131.556 114.286 131.556C114.701 131.556 115.115 131.556 115.945 131.556C116.36 131.556 116.526 131.556 116.526 131.306C116.609 131.057 116.692 130.31 116.692 130.227C116.692 130.144 116.692 130.061 116.609 130.061C116.526 130.061 116.526 130.144 116.526 130.227C116.443 130.725 116.277 130.974 115.945 131.057C115.613 131.14 115.281 131.14 114.949 131.14C114.535 131.14 114.203 131.14 113.954 131.057C113.705 130.974 113.622 130.725 113.539 130.227C113.539 129.978 113.539 128.732 113.539 128.316V127.32C113.539 127.237 113.539 127.237 113.622 127.237C113.788 127.237 114.949 127.237 115.281 127.32C115.696 127.403 115.862 127.486 115.862 127.652C115.862 127.735 115.945 127.901 115.945 127.984C115.945 128.067 115.945 128.15 116.028 128.15C116.111 128.15 116.111 128.067 116.111 127.984C116.111 127.818 116.111 127.569 116.194 127.237C116.194 126.905 116.277 126.655 116.277 126.655C116.277 126.572 116.277 126.572 116.194 126.572C116.111 126.572 116.111 126.655 116.028 126.655C115.945 126.822 115.779 126.822 115.447 126.822C115.198 126.822 113.788 126.822 113.622 126.822C113.539 126.822 113.539 126.822 113.539 126.738V123.666C113.539 123.582 113.539 123.582 113.622 123.582C113.788 123.582 115.032 123.582 115.198 123.582C115.696 123.666 115.945 123.749 116.028 123.998C116.028 124.081 116.111 124.247 116.111 124.33C116.111 124.413 116.111 124.496 116.194 124.496C116.277 124.496 116.277 124.413 116.277 124.33C116.277 124.081 116.277 123.832 116.36 123.666C116.36 123.333 116.443 123.25 116.443 123.167C116.443 123.084 116.443 123.084 116.36 123.084C116.36 123.084 116.277 123.084 116.194 123.167C116.111 123.167 115.945 123.25 115.696 123.25C115.447 123.25 113.124 123.25 113.041 123.25C112.294 123.25 112.045 123.25 111.713 123.25C111.547 123.25 111.547 123.25 111.547 123.333C111.547 123.416 111.63 123.416 111.713 123.416C111.796 123.416 111.962 123.416 112.045 123.416C112.46 123.499 112.543 123.666 112.543 124.081C112.543 124.413 112.543 124.745 112.543 126.489V128.316H112.709ZM107.231 123.582C107.729 123.582 108.227 123.582 108.642 123.582C109.721 123.582 110.053 123.832 110.053 124.164C110.053 124.247 110.053 124.247 110.053 124.247C110.053 124.413 110.053 124.413 110.136 124.413C110.219 124.413 110.219 124.33 110.219 124.247C110.219 124.164 110.219 123.333 110.219 123.001C110.219 122.918 110.219 122.835 110.136 122.835C110.053 122.835 109.97 122.835 109.804 122.918C109.638 122.918 109.389 123.001 108.974 123.001H104.658C104.492 123.001 104.077 123.001 103.745 122.918C103.413 122.918 103.33 122.752 103.247 122.752C103.164 122.752 103.164 122.918 103.164 123.001C103.164 123.084 102.915 124.081 102.915 124.164C102.915 124.247 102.915 124.247 102.998 124.247C103.081 124.247 103.081 124.247 103.081 124.164C103.081 124.081 103.164 123.998 103.247 123.832C103.413 123.582 103.745 123.499 104.409 123.499C104.99 123.499 105.571 123.499 106.152 123.499V128.15C106.152 129.23 106.152 130.061 106.069 130.559C105.986 130.891 105.986 131.14 105.737 131.14C105.654 131.14 105.488 131.223 105.405 131.223C105.322 131.223 105.322 131.223 105.322 131.306C105.322 131.389 105.405 131.389 105.488 131.389C105.82 131.389 106.567 131.389 106.65 131.389C106.733 131.389 107.397 131.389 108.061 131.389C108.227 131.389 108.227 131.389 108.227 131.306C108.227 131.306 108.227 131.223 108.144 131.223C108.061 131.223 107.812 131.223 107.646 131.14C107.314 131.057 107.231 130.891 107.231 130.559C107.148 130.061 107.148 129.23 107.148 128.15V123.582H107.231ZM99.6782 128.316C99.6782 129.396 99.6782 130.227 99.5952 130.725C99.5122 131.057 99.5122 131.306 99.2633 131.306C99.1803 131.306 99.0143 131.306 98.9313 131.306C98.8483 131.306 98.7653 131.306 98.7653 131.389C98.7653 131.472 98.8483 131.472 98.9313 131.472C99.2633 131.472 100.01 131.472 100.093 131.472C100.176 131.472 100.923 131.472 101.504 131.472C101.67 131.472 101.67 131.472 101.67 131.389C101.67 131.389 101.67 131.306 101.504 131.306C101.421 131.306 101.172 131.306 101.006 131.223C100.674 131.14 100.591 130.974 100.591 130.642C100.508 130.144 100.508 129.313 100.508 128.233V126.323C100.508 124.579 100.508 124.247 100.508 123.915C100.508 123.499 100.591 123.333 100.923 123.25C101.089 123.25 101.089 123.25 101.172 123.25C101.255 123.25 101.255 123.25 101.255 123.167C101.255 123.084 101.172 123.084 101.089 123.084C100.757 123.084 100.01 123.084 99.9272 123.084C99.8442 123.084 99.1803 123.084 98.7653 123.084C98.5993 123.084 98.5993 123.084 98.5993 123.167C98.5993 123.25 98.6823 123.25 98.6823 123.25C98.7653 123.25 98.9313 123.25 99.0143 123.333C99.2633 123.416 99.3463 123.582 99.4293 123.915C99.4293 124.247 99.4293 124.579 99.4293 126.323V128.316H99.6782ZM93.9515 126.323C93.9515 124.579 93.9515 124.247 93.9515 123.915C93.9515 123.499 94.0345 123.333 94.3665 123.25C94.5325 123.25 94.6985 123.25 94.7815 123.25C94.8645 123.25 94.8645 123.25 94.8645 123.167C94.8645 123.084 94.7815 123.084 94.6985 123.084C94.3665 123.084 93.5365 123.084 93.4535 123.084C93.3705 123.084 92.7066 123.084 92.1256 123.084C91.9596 123.084 91.9596 123.084 91.9596 123.167C91.9596 123.25 92.0426 123.25 92.0426 123.25C92.1256 123.25 92.3746 123.25 92.4576 123.25C92.8726 123.333 92.9556 123.499 92.9556 123.915C92.9556 124.247 92.9556 124.579 92.9556 126.323V128.233C92.9556 129.313 92.9556 130.144 92.8726 130.642C92.7896 130.974 92.7896 131.223 92.5406 131.223C92.4576 131.223 92.2916 131.306 92.2086 131.306C92.1256 131.306 92.1256 131.306 92.1256 131.389C92.1256 131.472 92.2086 131.472 92.2916 131.472C92.7066 131.472 93.0386 131.472 93.4535 131.472C94.5325 131.472 95.5284 131.556 96.5244 131.556C97.1054 131.556 97.1884 131.472 97.2714 131.223C97.3543 130.891 97.4373 130.227 97.4373 130.144C97.4373 130.061 97.4373 129.978 97.3544 129.978C97.2714 129.978 97.2714 130.061 97.2714 130.144C97.2714 130.393 97.1054 130.642 96.9394 130.808C96.6904 131.14 96.1924 131.14 95.5284 131.14C94.6155 131.14 94.3665 131.057 94.1175 130.891C93.9515 130.725 93.8685 129.978 93.8685 128.316V126.323H93.9515ZM86.0669 131.223C83.992 131.223 82.4151 129.562 82.4151 126.988C82.4151 124.579 83.826 123.333 85.8179 123.333C87.6438 123.333 89.3037 124.745 89.3037 127.403C89.3037 130.642 87.1458 131.223 86.0669 131.223ZM85.8179 131.639C88.5568 131.639 90.3827 129.562 90.3827 127.071C90.3827 124.496 88.4738 122.918 85.8179 122.918C82.6641 122.918 81.2531 125.493 81.2531 127.237C81.3361 129.313 82.6641 131.639 85.8179 131.639ZM75.1944 128.316C75.1944 129.396 75.1944 130.227 75.1114 130.725C75.0284 131.057 75.0284 131.306 74.7794 131.306C74.6964 131.306 74.5305 131.389 74.4475 131.389C74.3645 131.389 74.3645 131.389 74.3645 131.472C74.3645 131.556 74.4475 131.556 74.5305 131.556C74.8624 131.556 75.6094 131.556 75.6094 131.556C75.6924 131.556 76.3564 131.556 77.0203 131.556C77.1863 131.556 77.1863 131.556 77.1863 131.472C77.1863 131.472 77.1863 131.389 77.1033 131.389C77.0203 131.389 76.7714 131.389 76.6054 131.306C76.2734 131.223 76.1904 131.057 76.1904 130.725C76.1074 130.227 76.1074 129.396 76.1074 128.316V123.749C76.1074 123.666 76.1074 123.582 76.1904 123.499C76.2734 123.416 76.5224 123.416 76.6884 123.416C76.9373 123.416 77.6843 123.333 78.2653 123.998C78.8463 124.579 78.9292 125.327 78.9292 125.576C78.9292 126.738 78.0163 127.486 76.9373 127.486C76.6884 127.486 76.6054 127.486 76.6054 127.569C76.6054 127.652 76.6884 127.652 76.7714 127.652C76.8543 127.652 76.9373 127.652 77.0203 127.652C78.6803 127.652 79.8422 126.572 79.8422 125.16C79.8422 124.413 79.5102 123.915 79.2612 123.749C79.0952 123.582 78.5973 123.084 77.1033 123.084C76.6054 123.084 75.9414 123.084 75.6924 123.084C75.6094 123.084 74.9454 123.084 74.3645 123.084C74.1985 123.084 74.1985 123.084 74.1985 123.167C74.1985 123.25 74.2815 123.25 74.2815 123.25C74.3645 123.25 74.6135 123.25 74.6965 123.25C75.1114 123.333 75.1944 123.499 75.1944 123.915C75.1944 124.247 75.1944 124.579 75.1944 126.323V128.316ZM69.6337 131.639C70.2977 131.639 70.8786 131.472 71.3766 131.14C72.2066 130.559 72.3726 129.728 72.3726 129.313C72.3726 128.4 72.0406 127.735 70.7126 126.738L70.3807 126.489C69.3017 125.659 68.9697 125.244 68.9697 124.662C68.9697 123.832 69.5507 123.416 70.3807 123.416C71.4596 123.416 71.7916 123.915 71.7916 123.998C71.8746 124.081 71.9576 124.413 71.9576 124.579C71.9576 124.662 71.9576 124.745 72.0406 124.745C72.1236 124.745 72.1236 124.662 72.1236 124.496C72.1236 123.749 72.2066 123.416 72.2066 123.333C72.2066 123.25 72.2066 123.25 72.1236 123.25C72.0406 123.25 71.9576 123.25 71.7086 123.167C71.4596 123.084 71.0446 123.084 70.6297 123.084C69.1357 123.084 68.2228 123.915 68.2228 125.077C68.2228 125.825 68.4718 126.489 69.7167 127.486L70.2147 127.901C71.2106 128.649 71.5426 129.147 71.5426 129.894C71.5426 130.642 70.9616 131.389 69.8827 131.389C69.1357 131.389 68.3888 131.057 68.1398 130.227C68.1398 130.061 68.1398 129.894 68.1398 129.811C68.1398 129.728 68.1398 129.728 68.0568 129.728C67.9738 129.728 67.9738 129.811 67.9738 129.894C67.9738 130.061 67.8908 130.476 67.8908 131.057C67.8908 131.389 67.8908 131.389 68.0568 131.472C68.6377 131.556 69.1357 131.639 69.6337 131.639ZM61.7491 131.223C59.6742 131.223 58.0973 129.562 58.0973 126.988C58.0973 124.579 59.5082 123.333 61.5001 123.333C63.326 123.333 64.9859 124.745 64.9859 127.403C64.9859 130.642 62.828 131.223 61.7491 131.223ZM61.5001 131.639C64.239 131.639 66.0649 129.562 66.0649 127.071C66.0649 124.496 64.156 122.918 61.5001 122.918C58.3462 122.918 56.9353 125.493 56.9353 127.237C57.0183 129.313 58.3462 131.639 61.5001 131.639ZM50.9596 128.316C50.9596 129.396 50.9596 130.227 50.8766 130.725C50.7936 131.057 50.7936 131.306 50.5446 131.306C50.4616 131.306 50.2956 131.389 50.2127 131.389C50.1297 131.389 50.1297 131.389 50.1297 131.472C50.1297 131.556 50.2126 131.556 50.2956 131.556C50.6276 131.556 51.3746 131.556 51.3746 131.556C51.4576 131.556 52.1216 131.556 52.7855 131.556C52.9515 131.556 52.9515 131.556 52.9515 131.472C52.9515 131.472 52.9515 131.389 52.8685 131.389C52.7855 131.389 52.5365 131.389 52.3705 131.306C52.0386 131.223 51.9556 131.057 51.9556 130.725C51.8726 130.227 51.8726 129.396 51.8726 128.316V123.749C51.8726 123.666 51.8726 123.582 51.9556 123.499C52.0386 123.416 52.2875 123.416 52.4535 123.416C52.7025 123.416 53.4495 123.333 54.0305 123.998C54.6114 124.579 54.6944 125.327 54.6944 125.576C54.6944 126.738 53.7815 127.486 52.7025 127.486C52.4535 127.486 52.3705 127.486 52.3705 127.569C52.3705 127.652 52.4535 127.652 52.5365 127.652C52.6195 127.652 52.7025 127.652 52.7855 127.652C54.4454 127.652 55.6074 126.572 55.6074 125.16C55.6074 124.413 55.2754 123.915 55.0264 123.749C54.8604 123.582 54.3624 123.084 52.8685 123.084C52.3705 123.084 51.7066 123.084 51.4576 123.084C51.3746 123.084 50.7106 123.084 50.1297 123.084C49.9637 123.084 49.9637 123.084 49.9637 123.167C49.9637 123.25 50.0467 123.25 50.0467 123.25C50.1297 123.25 50.3786 123.25 50.4616 123.25C50.8766 123.333 50.9596 123.499 50.9596 123.915C50.9596 124.247 50.9596 124.579 50.9596 126.323V128.316ZM44.6519 129.562C44.6519 129.728 44.6519 130.227 44.6519 130.642C44.6519 130.974 44.4859 131.223 44.3199 131.223C44.2369 131.223 44.0709 131.306 43.988 131.306C43.905 131.306 43.905 131.306 43.905 131.389C43.905 131.472 43.988 131.472 44.0709 131.472C44.4029 131.472 45.1499 131.472 45.2329 131.472C45.3159 131.472 45.9799 131.472 46.6438 131.472C46.8098 131.472 46.8098 131.472 46.8098 131.389C46.8098 131.389 46.8098 131.306 46.7268 131.306C46.6438 131.306 46.3948 131.306 46.2288 131.223C45.8969 131.14 45.8139 130.974 45.7309 130.642C45.7309 130.144 45.7309 129.728 45.7309 129.562V128.649C45.7309 128.316 45.7309 127.901 45.8969 127.569C46.0629 127.071 47.7228 124.496 48.1377 124.081C48.3867 123.749 48.5527 123.666 48.7187 123.499C48.8847 123.416 49.1337 123.333 49.2167 123.333C49.2997 123.333 49.3827 123.333 49.3827 123.25C49.3827 123.167 49.2997 123.167 49.2167 123.167C48.9677 123.167 48.1377 123.167 48.1377 123.167C48.0548 123.167 47.6398 123.167 47.3908 123.167C47.3078 123.167 47.2248 123.167 47.2248 123.25C47.2248 123.333 47.3078 123.333 47.3908 123.333C47.5568 123.333 47.5568 123.499 47.5568 123.666C47.5568 123.832 47.4738 123.998 47.3908 124.247C47.1418 124.579 45.7309 127.071 45.4819 127.486C45.3159 127.154 43.573 124.33 43.324 123.998C43.241 123.832 43.158 123.666 43.158 123.582C43.158 123.499 43.241 123.416 43.324 123.416C43.407 123.333 43.49 123.333 43.49 123.333C43.49 123.333 43.49 123.25 43.324 123.25C42.909 123.25 42.411 123.25 42.328 123.25C42.245 123.25 41.4151 123.25 41.1661 123.25C41.0831 123.25 41.0001 123.25 41.0001 123.333C41.0001 123.416 41.0831 123.416 41.0831 123.416C41.1661 123.416 41.4151 123.499 41.5811 123.582C41.7471 123.749 42.079 123.998 42.328 124.413C42.743 124.994 44.2369 127.403 44.3199 127.569C44.4859 127.901 44.5689 128.15 44.5689 128.732V129.562H44.6519ZM35.0244 131.057C36.7673 128.483 38.5102 125.991 40.1701 123.416C40.2531 123.333 40.2531 123.333 40.2531 123.25C40.2531 123.167 40.1701 123.167 40.0041 123.167H36.7673C36.4353 123.167 35.8544 123.167 34.7754 123.167C34.4434 123.167 34.3604 123.084 34.2774 123.084C34.1944 123.084 34.1944 123.167 34.1944 123.333C34.1114 123.666 33.9454 124.662 33.9454 124.828C33.9454 124.911 33.9454 124.994 34.0284 124.994C34.1114 124.994 34.1114 124.994 34.1944 124.828C34.1944 124.579 34.4434 124.164 34.8584 123.915C35.1904 123.749 35.9373 123.666 36.5183 123.666H39.0082C37.4313 126.157 35.6884 128.649 33.9454 131.14C33.7794 131.306 33.7794 131.389 33.7794 131.472C33.7794 131.556 33.8624 131.556 33.9454 131.556C35.9373 131.556 37.9292 131.639 39.8382 131.639C40.0871 131.639 40.0871 131.639 40.1701 131.389C40.2531 131.14 40.4191 130.476 40.4191 130.144C40.4191 129.894 40.4191 129.894 40.3361 129.894C40.2531 129.894 40.2531 129.978 40.2531 130.061C40.2531 130.227 40.0871 130.476 40.0041 130.642C39.7552 130.974 39.4232 131.223 38.1782 131.223H35.0244V131.057ZM29.6297 131.639C30.3766 131.639 31.2066 131.556 31.7046 131.389C31.8705 131.306 31.9535 131.306 32.0365 131.057C32.1195 130.642 32.2855 129.728 32.2855 129.645C32.2855 129.562 32.2855 129.479 32.2025 129.479C32.1195 129.479 32.1195 129.562 32.1195 129.645C32.1195 129.811 31.9535 130.31 31.7046 130.559C31.2066 130.974 30.5426 131.14 29.7126 131.14C27.2228 131.14 25.5628 129.23 25.5628 127.071C25.5628 125.908 25.7288 124.994 26.5588 124.164C26.9738 123.749 27.6378 123.333 29.2147 123.333C30.2106 123.333 31.1236 123.666 31.5386 123.998C31.8705 124.247 32.0365 124.662 32.0365 125.16C32.0365 125.327 32.0365 125.41 32.1195 125.41C32.2025 125.41 32.2025 125.327 32.2025 125.16C32.2025 124.994 32.2025 124.413 32.2025 123.998C32.2025 123.582 32.2855 123.499 32.2855 123.416C32.2855 123.333 32.2855 123.333 32.2025 123.333C31.7875 123.25 31.4556 123.25 30.9576 123.167C30.3766 123.084 29.7126 123.001 29.2977 123.001C27.5548 123.001 26.4758 123.499 25.8118 124.164C24.8159 125.16 24.4839 126.489 24.4839 127.154C24.4839 128.233 24.7329 129.479 25.8948 130.476C26.7248 131.223 27.8867 131.639 29.6297 131.639ZM18.6742 128.316C18.6742 129.313 18.6742 129.894 18.6742 130.31C18.6742 131.14 18.5082 131.306 18.2592 131.389C18.1762 131.389 18.0932 131.389 18.0102 131.389C17.9272 131.389 17.8442 131.389 17.8442 131.472C17.8442 131.556 17.9272 131.556 18.0102 131.556C18.3422 131.556 18.5912 131.556 18.8402 131.556C19.2552 131.556 19.8361 131.556 20.2511 131.556C20.6661 131.556 21.0811 131.556 21.911 131.556C22.326 131.556 22.492 131.556 22.492 131.306C22.575 131.057 22.658 130.31 22.658 130.227C22.658 130.144 22.658 130.061 22.575 130.061C22.492 130.061 22.492 130.144 22.492 130.227C22.409 130.725 22.243 130.974 21.911 131.057C21.579 131.14 21.2471 131.14 20.9151 131.14C20.5001 131.14 20.1681 131.14 19.9191 131.057C19.6701 130.974 19.5871 130.725 19.5041 130.227C19.5041 129.978 19.5041 128.732 19.5041 128.316V127.32C19.5041 127.237 19.5041 127.237 19.5871 127.237C19.7531 127.237 20.9151 127.237 21.2471 127.32C21.662 127.403 21.828 127.486 21.828 127.652C21.828 127.735 21.911 127.901 21.911 127.984C21.911 128.067 21.911 128.15 21.994 128.15C22.077 128.15 22.077 128.067 22.077 127.984C22.077 127.818 22.077 127.569 22.16 127.237C22.16 126.905 22.243 126.655 22.243 126.655C22.243 126.572 22.243 126.572 22.16 126.572C22.077 126.572 22.077 126.655 21.994 126.655C21.911 126.822 21.745 126.822 21.4131 126.822C21.1641 126.822 19.7531 126.822 19.5871 126.822C19.5041 126.822 19.5041 126.822 19.5041 126.738V123.666C19.5041 123.582 19.5041 123.582 19.5871 123.582C19.7531 123.582 20.9981 123.582 21.1641 123.582C21.662 123.666 21.911 123.749 21.994 123.998C21.994 124.081 22.077 124.247 22.077 124.33C22.077 124.413 22.077 124.496 22.16 124.496C22.243 124.496 22.243 124.413 22.243 124.33C22.243 124.081 22.243 123.832 22.326 123.666C22.326 123.333 22.409 123.25 22.409 123.167C22.409 123.084 22.409 123.084 22.326 123.084C22.243 123.084 22.243 123.084 22.16 123.167C22.077 123.167 21.911 123.25 21.662 123.25C21.4131 123.25 19.0892 123.25 19.0062 123.25C18.2592 123.25 18.0102 123.25 17.6782 123.25C17.5122 123.25 17.5122 123.25 17.5122 123.333C17.5122 123.416 17.5952 123.416 17.6782 123.416C17.7612 123.416 17.9272 123.416 18.0102 123.416C18.4252 123.499 18.5082 123.666 18.5082 124.081C18.5082 124.413 18.5082 124.745 18.5082 126.489V128.316H18.6742ZM10.7896 131.057C12.5325 128.483 14.2754 125.991 15.9353 123.416C16.0183 123.333 16.0183 123.333 16.0183 123.25C16.0183 123.167 15.9353 123.167 15.7693 123.167H12.5325C12.2005 123.167 11.6195 123.167 10.5406 123.167C10.2086 123.167 10.1256 123.084 10.0426 123.084C9.95961 123.084 9.95961 123.167 9.95961 123.333C9.87661 123.666 9.71062 124.662 9.71062 124.828C9.71062 124.911 9.71062 124.994 9.79362 124.994C9.87661 124.994 9.87661 124.994 9.95961 124.828C9.95961 124.579 10.2086 124.164 10.6236 123.915C10.9556 123.749 11.7025 123.666 12.2835 123.666H14.7734C13.1965 126.157 11.4535 128.649 9.71062 131.14C9.54463 131.306 9.54463 131.389 9.54463 131.472C9.54463 131.556 9.62763 131.556 9.71062 131.556C11.7025 131.556 13.6944 131.639 15.6033 131.639C15.8523 131.639 15.8523 131.639 15.9353 131.389C16.0183 131.14 16.1843 130.476 16.1843 130.144C16.1843 129.894 16.1843 129.894 16.1013 129.894C16.0183 129.894 16.0183 129.978 16.0183 130.061C16.0183 130.227 15.8523 130.476 15.7693 130.642C15.5203 130.974 15.1884 131.223 13.9434 131.223H10.7896V131.057ZM2.48997 123.666C2.48997 123.582 2.48997 123.582 2.57297 123.499C2.65597 123.499 2.98795 123.416 3.31993 123.416C4.56487 123.416 5.31184 124.247 5.31184 125.659C5.31184 126.489 4.97985 127.071 4.64787 127.403C4.39888 127.569 4.0669 127.652 3.81791 127.652C3.31993 127.652 2.82196 127.569 2.57297 127.486C2.48997 127.486 2.48997 127.403 2.48997 127.32V123.666ZM1.57702 128.316C1.57702 129.396 1.57702 130.227 1.49402 130.725C1.41103 131.057 1.41103 131.306 1.16204 131.306C1.07904 131.306 0.91305 131.389 0.830054 131.389C0.747058 131.389 0.747058 131.389 0.747058 131.472C0.747058 131.556 0.830054 131.556 0.91305 131.556C1.24503 131.556 1.992 131.556 1.992 131.556C2.07499 131.556 2.73896 131.556 3.40293 131.556C3.56892 131.556 3.56892 131.556 3.56892 131.472C3.56892 131.472 3.56892 131.389 3.48592 131.389C3.40293 131.389 3.15394 131.389 2.98795 131.306C2.65597 131.223 2.57297 131.057 2.57297 130.725C2.48997 130.227 2.48997 129.313 2.48997 128.316V128.067C2.48997 127.984 2.48997 127.984 2.57297 127.984H3.9839C4.0669 127.984 4.0669 127.984 4.14989 128.067C4.39888 128.316 4.89686 129.064 5.39483 129.728C6.0588 130.559 6.47378 131.14 6.97175 131.389C7.30374 131.556 7.55273 131.639 8.21669 131.639H9.04665C9.21265 131.639 9.29564 131.639 9.29564 131.556L9.21265 131.472C9.12965 131.472 8.96366 131.472 8.79767 131.472C8.54868 131.389 8.0507 131.306 7.38673 130.642C6.72277 129.978 5.9758 128.981 4.97985 127.818C5.9758 126.905 6.39078 126.074 6.39078 125.244C6.39078 124.496 5.89281 123.915 5.56082 123.749C4.97985 123.333 4.14989 123.25 3.48592 123.25C3.15394 123.25 2.24099 123.25 2.15799 123.25C2.07499 123.25 1.41103 123.25 0.830054 123.25C0.664062 123.25 0.664062 123.25 0.664062 123.333C0.664062 123.416 0.747058 123.416 0.747058 123.416C0.830054 123.416 1.07904 123.416 1.16204 123.416C1.57702 123.499 1.66001 123.666 1.66001 124.081C1.66001 124.413 1.66001 124.745 1.66001 126.489V128.316H1.57702Z" fill="#C51A1B"/>
<path d="M117.771 103.65C118.601 103.65 119.431 103.65 120.261 103.65C122.17 103.65 122.585 104.148 122.668 104.646C122.668 104.73 122.668 104.813 122.668 104.813C122.668 105.062 122.751 105.145 122.834 105.145C122.917 105.145 123 105.062 123 104.896C123 104.73 123.083 103.401 123.083 102.819C123.083 102.736 123.083 102.57 123 102.57C122.917 102.57 122.751 102.653 122.419 102.653C122.087 102.736 121.672 102.736 121.008 102.736H113.704C113.455 102.736 112.709 102.736 112.128 102.653C111.63 102.653 111.381 102.404 111.298 102.404C111.215 102.404 111.132 102.653 111.132 102.736C111.132 102.902 110.717 104.48 110.717 104.646C110.717 104.73 110.717 104.813 110.8 104.813C110.883 104.813 110.966 104.813 110.966 104.646C111.049 104.48 111.049 104.397 111.298 104.065C111.63 103.65 112.045 103.484 113.289 103.484C114.285 103.484 115.198 103.484 116.194 103.484V111.457C116.194 113.284 116.194 114.779 116.111 115.526C116.028 116.108 115.945 116.523 115.53 116.523C115.364 116.523 115.115 116.606 114.949 116.606C114.866 116.606 114.783 116.689 114.783 116.689C114.783 116.772 114.866 116.855 115.115 116.855C115.696 116.855 116.941 116.772 117.024 116.772C117.107 116.772 118.352 116.855 119.431 116.855C119.68 116.855 119.763 116.772 119.763 116.689C119.763 116.606 119.763 116.606 119.597 116.606C119.431 116.606 119.016 116.606 118.684 116.523C118.103 116.44 118.02 116.025 117.937 115.526C117.854 114.779 117.854 113.284 117.854 111.457V103.65H117.771ZM100.508 110.792C100.425 110.792 100.425 110.792 100.425 110.626L102.168 105.56C102.251 105.311 102.334 105.311 102.5 105.56L104.326 110.626C104.326 110.709 104.326 110.792 104.243 110.792H100.508ZM104.492 111.457C104.575 111.457 104.658 111.457 104.658 111.54L106.484 116.191C106.567 116.523 106.484 116.689 106.401 116.689C106.318 116.689 106.235 116.772 106.235 116.855C106.235 116.938 106.484 116.938 106.816 117.021C108.144 117.021 109.555 117.021 109.887 117.021C110.136 117.021 110.302 117.021 110.302 116.855C110.302 116.772 110.219 116.772 110.053 116.772C109.887 116.772 109.555 116.772 109.306 116.689C108.891 116.606 108.31 116.274 107.646 114.613C106.484 111.789 103.413 103.982 103.081 103.318C102.832 102.736 102.749 102.653 102.666 102.653C102.583 102.653 102.5 102.736 102.251 103.401L97.8522 115.028C97.5202 115.942 97.1053 116.689 96.1923 116.772C96.0263 116.772 95.8603 116.772 95.6943 116.772C95.5284 116.772 95.4454 116.772 95.4454 116.855C95.4454 116.938 95.5284 117.021 95.7773 117.021C96.6903 117.021 97.7692 116.938 98.0182 116.938C98.2672 116.938 99.0142 117.021 99.5122 117.021C99.6781 117.021 99.8441 117.021 99.8441 116.855C99.8441 116.772 99.7611 116.772 99.5951 116.772H99.4292C99.0972 116.772 98.7652 116.606 98.7652 116.191C98.7652 115.859 98.8482 115.443 99.0142 114.945L100.176 111.623C100.176 111.54 100.259 111.457 100.342 111.457H104.492ZM88.8887 111.623C88.8887 113.45 88.8887 114.945 88.8057 115.692C88.7227 116.274 88.6397 116.689 88.2247 116.772C88.0587 116.772 87.8097 116.855 87.7267 116.855C87.5607 116.855 87.4777 116.938 87.4777 116.938C87.4777 117.021 87.5607 117.104 87.8097 117.104C88.3907 117.104 89.6356 117.021 89.7186 117.021C89.8016 117.021 91.0466 117.104 92.1255 117.104C92.3745 117.104 92.4575 117.021 92.4575 116.938C92.4575 116.855 92.3745 116.855 92.2085 116.855C92.1255 116.855 91.7105 116.855 91.3785 116.772C90.7976 116.689 90.7146 116.274 90.6316 115.776C90.5486 115.028 90.5486 113.533 90.5486 111.706V108.384C90.5486 105.477 90.5486 104.896 90.5486 104.314C90.5486 103.65 90.7146 103.318 91.2956 103.235C91.5445 103.235 91.6275 103.152 91.7935 103.152C91.8765 103.152 91.9595 103.152 91.9595 103.068C91.9595 102.985 91.8765 102.902 91.6275 102.902C91.0466 102.902 89.8016 102.985 89.7186 102.985C89.6356 102.985 88.3907 102.902 87.7267 102.902C87.4777 102.902 87.3947 102.902 87.3947 103.068C87.3947 103.152 87.4777 103.152 87.5607 103.152C87.7267 103.152 87.9757 103.152 88.1417 103.235C88.5567 103.318 88.8057 103.65 88.8057 104.314C88.8057 104.896 88.8057 105.477 88.8057 108.384V111.623H88.8887ZM73.7834 103.816C73.7834 103.733 73.8664 103.65 73.9494 103.567C74.1154 103.484 74.6964 103.484 75.2773 103.484C77.3522 103.484 78.6802 104.896 78.6802 107.221C78.6802 108.633 78.1822 109.63 77.5182 110.128C77.1032 110.46 76.5223 110.46 76.0243 110.46C75.1943 110.46 74.2814 110.294 73.9494 110.128C73.8664 110.045 73.7834 109.962 73.7834 109.879V103.816ZM72.2065 111.623C72.2065 113.45 72.2065 114.945 72.1235 115.692C72.0405 116.274 71.9575 116.689 71.5425 116.689C71.3765 116.689 71.1275 116.772 70.9615 116.772C70.8785 116.772 70.7956 116.855 70.7956 116.855C70.7956 116.938 70.8785 117.021 71.1275 117.021C71.7085 117.021 72.9534 116.938 72.9534 116.938C73.0364 116.938 74.2814 117.021 75.3603 117.021C75.6093 117.021 75.6923 116.938 75.6923 116.855C75.6923 116.772 75.6923 116.772 75.5263 116.772C75.3603 116.772 74.9454 116.772 74.6134 116.689C74.0324 116.606 73.9494 116.191 73.8664 115.692C73.7834 114.945 73.7834 113.45 73.7834 111.623V111.208C73.7834 111.125 73.7834 111.042 73.9494 111.042H76.3563C76.4393 111.042 76.5223 111.042 76.6053 111.125C77.0202 111.623 77.9332 112.869 78.7632 113.865C79.8421 115.277 80.5891 116.191 81.419 116.606C81.917 116.855 82.415 116.938 83.4939 116.938H84.9049C85.2368 116.938 85.4028 116.938 85.4028 116.772C85.4028 116.689 85.3198 116.689 85.2368 116.689C85.1538 116.689 84.8219 116.689 84.4899 116.606C83.9919 116.523 83.1619 116.357 82.083 115.277C80.9211 114.114 79.5931 112.453 78.0162 110.46C79.7591 108.882 80.3401 107.553 80.3401 106.141C80.3401 104.813 79.5101 103.899 79.0121 103.567C78.0162 102.819 76.6883 102.736 75.4433 102.736C74.8624 102.736 73.3684 102.819 73.1194 102.819C73.0364 102.819 71.7915 102.736 70.8785 102.736C70.6296 102.736 70.5466 102.736 70.5466 102.902C70.5466 102.985 70.6296 102.985 70.7126 102.985C70.8785 102.985 71.2105 102.985 71.3765 103.068C72.0405 103.235 72.2065 103.484 72.2065 104.148C72.2065 104.73 72.2065 105.311 72.2065 108.218V111.623ZM57.6822 110.792C57.5992 110.792 57.5992 110.792 57.5992 110.626L59.3421 105.56C59.4251 105.311 59.5081 105.311 59.6741 105.56L61.5 110.626C61.5 110.709 61.5 110.792 61.417 110.792H57.6822ZM61.666 111.457C61.749 111.457 61.832 111.457 61.832 111.54L63.6579 116.191C63.7409 116.523 63.6579 116.689 63.5749 116.689C63.4919 116.689 63.4089 116.772 63.4089 116.855C63.4089 116.938 63.6579 116.938 63.9899 117.021C65.3178 117.021 66.7288 117.021 67.0607 117.021C67.3097 117.021 67.4757 117.021 67.4757 116.855C67.4757 116.772 67.3927 116.772 67.2267 116.772C67.0607 116.772 66.7287 116.772 66.4798 116.689C66.0648 116.606 65.4838 116.274 64.8198 114.613C63.6579 111.789 60.587 103.982 60.2551 103.318C60.0061 102.736 59.9231 102.653 59.8401 102.653C59.7571 102.653 59.6741 102.736 59.4251 103.401L55.0263 115.028C54.6943 115.942 54.2794 116.689 53.3664 116.772C53.2004 116.772 53.0344 116.772 52.8684 116.772C52.7024 116.772 52.6194 116.772 52.6194 116.855C52.6194 116.938 52.7024 117.021 52.9514 117.021C53.8644 117.021 54.9433 116.938 55.1923 116.938C55.4413 116.938 56.1883 117.021 56.6862 117.021C56.8522 117.021 57.0182 117.021 57.0182 116.855C57.0182 116.772 56.9352 116.772 56.7692 116.772H56.6032C56.2713 116.772 55.9393 116.606 55.9393 116.191C55.9393 115.859 56.0223 115.443 56.1883 114.945L57.3502 111.623C57.3502 111.54 57.4332 111.457 57.5162 111.457H61.666ZM46.2287 103.65C47.0587 103.65 47.8887 103.65 48.7186 103.65C50.6275 103.65 51.0425 104.148 51.1255 104.646C51.1255 104.73 51.1255 104.813 51.1255 104.813C51.1255 105.062 51.2085 105.145 51.2915 105.145C51.3745 105.145 51.4575 105.062 51.4575 104.896C51.4575 104.73 51.5405 103.401 51.5405 102.819C51.5405 102.736 51.5405 102.57 51.4575 102.57C51.3745 102.57 51.2085 102.653 50.8765 102.653C50.5445 102.736 50.1296 102.736 49.4656 102.736H42.1619C41.913 102.736 41.166 102.736 40.585 102.653C40.087 102.653 39.8381 102.404 39.7551 102.404C39.6721 102.404 39.5891 102.653 39.5891 102.736C39.5891 102.902 39.1741 104.48 39.1741 104.646C39.1741 104.73 39.1741 104.813 39.2571 104.813C39.3401 104.813 39.4231 104.813 39.4231 104.646C39.5061 104.48 39.5061 104.397 39.7551 104.065C40.087 103.65 40.502 103.484 41.747 103.484C42.7429 103.484 43.6559 103.484 44.6518 103.484V111.457C44.6518 113.284 44.6518 114.779 44.5688 115.526C44.4858 116.108 44.4028 116.523 43.9879 116.523C43.8219 116.523 43.5729 116.606 43.4069 116.606C43.3239 116.606 43.2409 116.689 43.2409 116.689C43.2409 116.772 43.3239 116.855 43.5729 116.855C44.1539 116.855 45.3988 116.772 45.4818 116.772C45.5648 116.772 46.8097 116.855 47.8887 116.855C48.1377 116.855 48.2206 116.772 48.2206 116.689C48.2206 116.606 48.2207 116.606 48.0547 116.606C47.8887 116.606 47.4737 116.606 47.1417 116.523C46.5607 116.44 46.4777 116.025 46.3947 115.526C46.3117 114.779 46.3117 113.284 46.3117 111.457V103.65H46.2287ZM28.4676 116.606C24.9818 116.606 22.2429 113.782 22.2429 109.38C22.2429 105.311 24.6498 103.235 27.9696 103.235C31.0405 103.235 33.8624 105.643 33.8624 110.128C33.8624 115.609 30.2105 116.606 28.4676 116.606ZM27.9696 117.27C32.7004 117.27 35.7713 113.782 35.7713 109.63C35.7713 105.228 32.5344 102.57 28.1356 102.57C22.7409 102.57 20.417 106.889 20.417 109.879C20.334 113.284 22.5749 117.27 27.9696 117.27ZM1.57692 114.281C1.57692 116.025 1.49393 116.523 0.995952 116.689C0.663968 116.772 0.331984 116.772 0.165992 116.772C0.082996 116.772 0 116.772 0 116.855C0 117.021 0.082996 117.021 0.331984 117.021C1.24494 117.021 1.9919 116.938 2.24089 116.938C2.40688 116.938 3.23684 117.021 4.31579 117.021C4.56478 117.021 4.64777 117.021 4.64777 116.855C4.64777 116.772 4.56478 116.772 4.48178 116.772C4.31579 116.772 3.90081 116.772 3.48583 116.689C2.98785 116.523 2.73887 116.025 2.73887 114.53L2.48988 105.477C3.15385 106.141 5.31174 108.55 7.55263 110.875C9.62753 113.035 12.4494 115.776 12.6154 115.942C13.6113 116.938 13.8603 117.104 14.0263 117.104C14.1923 117.104 14.1923 117.021 14.1923 115.776V104.813C14.1923 103.484 14.3583 103.235 14.8563 103.152C15.1053 103.152 15.1883 103.068 15.3543 103.068C15.5202 103.068 15.6032 102.985 15.6032 102.902C15.6032 102.819 15.4372 102.736 15.2713 102.736C14.4413 102.736 13.8603 102.819 13.6113 102.819C13.3623 102.819 12.4494 102.736 11.6194 102.736C11.3704 102.736 11.2045 102.736 11.2045 102.902C11.2045 102.985 11.2875 103.068 11.4534 103.068C11.6194 103.068 11.9514 103.068 12.2834 103.152C12.8644 103.318 13.0304 103.733 13.0304 104.896L13.2794 114.447C12.6154 113.865 10.5405 111.54 8.63158 109.547C5.64372 106.474 2.73887 103.401 2.40688 103.152C2.24089 102.985 1.90891 102.57 1.74292 102.57C1.57692 102.57 1.49393 102.736 1.49393 103.484C1.49393 107.138 1.49393 104.646 1.49393 111.457V114.281H1.57692Z" fill="#C51A1B"/>
</g>
<defs>
<clipPath id="clip0">
<rect width="123" height="148" fill="white"/>
</clipPath>
</defs>
</svg>
